# xmcd
#
# Track frame offsets: 
#        150
#        11952
#        22632
#        34490
#        46672
#        59302
#        68520
#        79227
#        89525
#        102710
#        114502
#        126645
#        138007
#        149360
#        161520
#        172237
#        183410
#        193627
#        205310
#        216530
#        227447
#        237620
#        247115
#        256090
#        267397
#        277325
#        289250
#        299795
#        311210
#        321342
#
# Disc length: 4423 seconds
#
# Revision: 2
# Processed by: cddbd v1.5.2PL0 Copyright (c) Steve Scherf et al.
# Submitted via: ExactAudioCopy v0.95b4
#
DISCID=e511451e
DTITLE=Warren Smith - Call Of The Wild
DYEAR=1990
DGENRE=Country
TTITLE0=Cave In
TTITLE1=A Whole Lot Of Nothin'
TTITLE2=Call Of The Wild
TTITLE3=Old Lonesome Feeling
TTITLE4=Book Of Broken Hearts
TTITLE5=Odds And Ends (Bits And Pieces)
TTITLE6=Why I'm Walking (& Shirley Collie)
TTITLE7=After The Boy Gets The Girl
TTITLE8=I Fall To Pieces
TTITLE9=Foolin' Around
TTITLE10=Take Good Care Of Her
TTITLE11=Pick Me Up On Your Way Down
TTITLE12=Just Call Me Lonesome
TTITLE13=Heartbreak Avenue
TTITLE14=I Still Miss Someone
TTITLE15=Kissing My Pillow
TTITLE16=I Can't Stop Loving You
TTITLE17=I Don't Believe I'll Fall In Love Today
TTITLE18=Why Baby Why (& Shirley Collie)
TTITLE19=Five Minutes Of The Latest Blues
TTITLE20=Bad News Gets Around
TTITLE21=A Hundred And Sixty Lbs. Of Hurt
TTITLE22=Put Me Back Together Again
TTITLE23=Call Of The Wild (1990)
TTITLE24=She Likes Attention
TTITLE25=Future X
TTITLE26=That's Why I Sing In A Honky Tonk
TTITLE27=Big City Ways
TTITLE28=Blue Smoke
TTITLE29=Judge And Jury
EXTD=Bear Family BCD 15495 YEAR: 1990
EXTT0=
EXTT1=
EXTT2=
EXTT3=
EXTT4=
EXTT5=
EXTT6=
EXTT7=
EXTT8=
EXTT9=
EXTT10=
EXTT11=
EXTT12=
EXTT13=
EXTT14=
EXTT15=
EXTT16=
EXTT17=
EXTT18=
EXTT19=
EXTT20=
EXTT21=
EXTT22=
EXTT23=
EXTT24=
EXTT25=
EXTT26=
EXTT27=
EXTT28=
EXTT29=
PLAYORDER=
